<svg xmlns="http://www.w3.org/2000/svg" class="stage-profile" viewBox="0 0 640 192" width="640" height="192"><rect class="sp-bg" width="640" height="192" fill="#E6E4DD"/><line class="sp-leader" x1="178.99" y1="106.80" x2="178.99" y2="148" stroke="#1A1917" stroke-width="0.6"/><line class="sp-leader" x1="234.07" y1="71.57" x2="234.07" y2="148" stroke="#1A1917" stroke-width="0.6"/><line class="sp-leader" x1="366.01" y1="81.68" x2="366.01" y2="148" stroke="#1A1917" stroke-width="0.6"/><line class="sp-leader" x1="503.89" y1="71.68" x2="503.89" y2="148" stroke="#1A1917" stroke-width="0.6"/><line class="sp-leader" x1="328.08" y1="128.35" x2="328.08" y2="148" stroke="#1A1917" stroke-width="0.6"/><g class="sp-fill"><path class="sp-band" d="M20.00,148 L20.00,140.00 L22.01,139.68 L24.01,139.36 L26.02,139.70 L28.03,138.59 L30.03,138.00 L32.04,137.44 L34.05,137.13 L36.05,137.27 L38.06,138.69 L40.07,136.80 L42.07,135.97 L44.08,136.41 L46.09,136.28 L48.09,135.45 L50.10,134.94 L52.11,134.50 L54.11,134.24 L56.12,133.76 L58.13,133.72 L60.13,133.57 L62.14,132.69 L64.15,131.18 L66.15,132.67 L68.16,133.06 L70.17,133.02 L72.17,132.87 L74.18,133.59 L76.19,134.19 L78.19,134.68 L80.20,135.14 L82.21,135.31 L84.21,135.73 L86.22,135.84 L88.23,135.99 L90.23,136.22 L92.24,136.74 L94.25,136.93 L96.25,137.29 L98.26,137.23 L100.27,137.95 L102.27,137.77 L104.28,138.46 L106.29,138.85 L108.29,138.87 L110.30,138.78 L112.31,138.27 L114.31,137.98 L116.32,137.89 L118.33,137.98 L120.33,137.80 L122.34,137.63 L124.35,137.25 L126.35,136.26 L128.36,134.59 L130.37,133.08 L132.37,131.42 L134.38,130.08 L136.39,129.00 L138.39,128.21 L140.40,128.03 L142.41,127.66 L144.41,126.31 L146.42,124.86 L148.43,123.29 L150.43,122.28 L152.44,121.36 L154.45,122.33 L156.45,124.15 L158.46,125.54 L160.47,125.47 L162.47,123.70 L164.48,123.46 L166.49,125.54 L168.49,125.11 L170.50,123.45 L170.91,123.16 L170.91,148 Z" fill="#F2C200" fill-opacity="0.22"/><path class="sp-band" d="M170.91,148 L170.91,123.16 L172.51,121.55 L174.52,119.67 L176.52,118.12 L178.33,116.42 L178.33,148 Z" fill="#F2C200" fill-opacity="0.66"/><path class="sp-band" d="M178.33,148 L178.33,116.42 L178.53,116.06 L180.54,116.19 L182.54,117.66 L184.55,118.43 L186.56,117.82 L188.56,117.13 L189.87,117.06 L189.87,148 Z" fill="#F2C200" fill-opacity="0.22"/><path class="sp-band" d="M189.87,148 L189.87,117.06 L190.57,116.53 L192.58,114.23 L194.58,112.16 L194.82,112.03 L194.82,148 Z" fill="#F2C200" fill-opacity="0.66"/><path class="sp-band" d="M194.82,148 L194.82,112.03 L196.59,110.79 L198.60,111.34 L200.60,112.40 L202.61,114.37 L204.62,116.34 L206.62,117.87 L208.63,119.78 L210.64,121.24 L212.64,123.23 L214.65,121.76 L216.66,120.61 L218.66,119.39 L220.67,117.54 L222.68,116.14 L224.68,114.91 L226.69,114.03 L226.98,113.90 L226.98,148 Z" fill="#F2C200" fill-opacity="0.22"/><path class="sp-band" d="M226.98,148 L226.98,113.90 L228.70,111.83 L230.70,110.07 L232.71,107.86 L233.58,107.08 L233.58,148 Z" fill="#F2C200" fill-opacity="0.66"/><path class="sp-band" d="M233.58,148 L233.58,107.08 L234.72,106.37 L236.72,108.13 L238.73,110.01 L240.74,112.91 L242.74,114.48 L244.75,116.62 L246.76,118.93 L248.76,120.48 L250.77,122.08 L252.78,122.91 L254.78,123.62 L256.79,124.00 L258.80,124.61 L260.80,124.64 L262.81,125.28 L264.82,126.65 L266.82,127.90 L268.83,128.68 L270.84,129.12 L272.84,129.40 L274.85,129.70 L276.86,130.08 L278.86,130.26 L280.87,130.58 L282.88,130.67 L284.88,131.04 L286.89,131.33 L288.90,131.48 L290.90,131.80 L292.91,132.06 L294.92,132.00 L296.92,131.74 L298.93,131.74 L300.94,131.45 L302.94,129.95 L304.95,130.53 L306.96,130.59 L308.96,130.66 L310.97,130.00 L312.98,130.19 L314.98,129.57 L316.99,129.50 L319.00,129.44 L321.00,129.04 L323.01,128.86 L325.02,128.67 L327.02,128.73 L329.03,128.54 L330.89,128.12 L330.89,148 Z" fill="#F2C200" fill-opacity="0.22"/><path class="sp-band" d="M330.89,148 L330.89,128.12 L331.04,127.92 L333.04,125.63 L335.05,123.38 L337.06,120.57 L339.06,117.98 L341.07,115.98 L343.08,113.44 L345.08,111.10 L347.09,108.72 L349.10,106.73 L351.10,104.46 L353.11,102.61 L355.12,100.58 L357.12,98.37 L357.27,98.25 L357.27,148 Z" fill="#F2C200" fill-opacity="0.66"/><path class="sp-band" d="M357.27,148 L357.27,98.25 L359.13,97.08 L360.57,95.97 L360.57,148 Z" fill="#F2C200" fill-opacity="0.22"/><path class="sp-band" d="M360.57,148 L360.57,95.97 L361.14,95.59 L363.14,93.65 L365.15,91.42 L366.34,90.49 L366.34,148 Z" fill="#F2C200" fill-opacity="0.66"/><path class="sp-band" d="M366.34,148 L366.34,90.49 L367.16,90.11 L369.16,90.75 L371.17,91.49 L373.18,91.23 L375.18,90.78 L377.19,90.01 L379.20,89.12 L381.20,89.31 L383.21,89.57 L385.22,89.82 L387.22,90.22 L389.23,90.49 L391.24,91.01 L393.24,90.51 L395.25,89.95 L397.26,89.95 L399.26,89.82 L401.27,89.74 L403.28,89.44 L405.28,89.42 L407.29,88.97 L409.30,88.35 L411.30,88.30 L413.31,89.08 L415.32,89.47 L417.32,90.53 L419.33,90.72 L421.34,90.40 L423.34,90.78 L425.35,90.68 L427.36,90.08 L429.36,89.52 L431.37,89.26 L433.38,88.83 L435.38,89.17 L437.39,91.46 L439.40,92.51 L441.40,93.24 L443.41,95.37 L445.42,98.36 L447.42,101.18 L449.43,104.07 L451.44,106.14 L453.44,109.47 L455.45,112.20 L457.46,114.72 L459.46,114.46 L461.47,113.08 L463.48,112.86 L465.48,112.70 L467.49,112.74 L469.50,112.45 L471.51,112.03 L473.51,111.28 L475.52,110.50 L477.53,109.12 L479.53,108.56 L481.54,107.10 L483.55,105.31 L485.55,104.69 L485.92,104.40 L485.92,148 Z" fill="#F2C200" fill-opacity="0.22"/><path class="sp-band" d="M485.92,148 L485.92,104.40 L487.56,102.64 L489.57,99.62 L491.57,96.35 L493.58,93.28 L495.59,91.94 L497.59,89.62 L499.11,88.37 L499.11,148 Z" fill="#F2C200" fill-opacity="0.66"/><path class="sp-band" d="M499.11,148 L499.11,88.37 L499.60,87.66 L501.61,84.35 L503.23,81.76 L503.23,148 Z" fill="#F2C200" fill-opacity="0.99"/><path class="sp-band" d="M503.23,148 L503.23,81.76 L503.61,81.14 L505.62,79.99 L507.63,83.18 L509.63,86.42 L511.64,89.70 L513.65,93.11 L515.65,96.84 L517.66,99.76 L519.67,102.59 L521.67,104.17 L523.68,105.56 L525.69,106.02 L527.69,107.67 L529.70,108.63 L531.71,109.15 L533.71,109.66 L535.72,110.45 L537.73,111.80 L539.73,112.67 L541.74,112.75 L543.75,111.95 L545.75,110.64 L547.76,109.86 L549.77,109.45 L551.77,109.89 L553.78,110.80 L555.79,112.24 L557.79,113.36 L559.80,114.64 L561.81,116.14 L563.81,117.99 L565.82,118.56 L567.83,117.61 L569.83,116.49 L571.84,115.23 L573.85,114.21 L575.85,113.50 L577.86,112.57 L579.87,111.78 L581.87,111.65 L583.88,112.03 L585.89,112.10 L587.89,112.38 L589.90,113.24 L591.91,113.31 L593.91,113.82 L595.92,113.95 L597.93,114.35 L599.93,115.68 L601.94,117.10 L603.95,118.49 L605.95,119.42 L607.96,120.67 L609.97,120.94 L611.97,120.37 L613.98,119.98 L615.99,120.80 L617.99,121.63 L620.00,122.07 L620.00,148 Z" fill="#F2C200" fill-opacity="0.22"/></g><line class="sp-baseline" x1="20" y1="148" x2="620" y2="148" stroke="#1A1917" stroke-width="2"/><polyline class="sp-line" points="20.00,140.00 22.01,139.68 24.01,139.36 26.02,139.70 28.03,138.59 30.03,138.00 32.04,137.44 34.05,137.13 36.05,137.27 38.06,138.69 40.07,136.80 42.07,135.97 44.08,136.41 46.09,136.28 48.09,135.45 50.10,134.94 52.11,134.50 54.11,134.24 56.12,133.76 58.13,133.72 60.13,133.57 62.14,132.69 64.15,131.18 66.15,132.67 68.16,133.06 70.17,133.02 72.17,132.87 74.18,133.59 76.19,134.19 78.19,134.68 80.20,135.14 82.21,135.31 84.21,135.73 86.22,135.84 88.23,135.99 90.23,136.22 92.24,136.74 94.25,136.93 96.25,137.29 98.26,137.23 100.27,137.95 102.27,137.77 104.28,138.46 106.29,138.85 108.29,138.87 110.30,138.78 112.31,138.27 114.31,137.98 116.32,137.89 118.33,137.98 120.33,137.80 122.34,137.63 124.35,137.25 126.35,136.26 128.36,134.59 130.37,133.08 132.37,131.42 134.38,130.08 136.39,129.00 138.39,128.21 140.40,128.03 142.41,127.66 144.41,126.31 146.42,124.86 148.43,123.29 150.43,122.28 152.44,121.36 154.45,122.33 156.45,124.15 158.46,125.54 160.47,125.47 162.47,123.70 164.48,123.46 166.49,125.54 168.49,125.11 170.50,123.45 172.51,121.55 174.52,119.67 176.52,118.12 178.53,116.06 180.54,116.19 182.54,117.66 184.55,118.43 186.56,117.82 188.56,117.13 190.57,116.53 192.58,114.23 194.58,112.16 196.59,110.79 198.60,111.34 200.60,112.40 202.61,114.37 204.62,116.34 206.62,117.87 208.63,119.78 210.64,121.24 212.64,123.23 214.65,121.76 216.66,120.61 218.66,119.39 220.67,117.54 222.68,116.14 224.68,114.91 226.69,114.03 228.70,111.83 230.70,110.07 232.71,107.86 234.72,106.37 236.72,108.13 238.73,110.01 240.74,112.91 242.74,114.48 244.75,116.62 246.76,118.93 248.76,120.48 250.77,122.08 252.78,122.91 254.78,123.62 256.79,124.00 258.80,124.61 260.80,124.64 262.81,125.28 264.82,126.65 266.82,127.90 268.83,128.68 270.84,129.12 272.84,129.40 274.85,129.70 276.86,130.08 278.86,130.26 280.87,130.58 282.88,130.67 284.88,131.04 286.89,131.33 288.90,131.48 290.90,131.80 292.91,132.06 294.92,132.00 296.92,131.74 298.93,131.74 300.94,131.45 302.94,129.95 304.95,130.53 306.96,130.59 308.96,130.66 310.97,130.00 312.98,130.19 314.98,129.57 316.99,129.50 319.00,129.44 321.00,129.04 323.01,128.86 325.02,128.67 327.02,128.73 329.03,128.54 331.04,127.92 333.04,125.63 335.05,123.38 337.06,120.57 339.06,117.98 341.07,115.98 343.08,113.44 345.08,111.10 347.09,108.72 349.10,106.73 351.10,104.46 353.11,102.61 355.12,100.58 357.12,98.37 359.13,97.08 361.14,95.59 363.14,93.65 365.15,91.42 367.16,90.11 369.16,90.75 371.17,91.49 373.18,91.23 375.18,90.78 377.19,90.01 379.20,89.12 381.20,89.31 383.21,89.57 385.22,89.82 387.22,90.22 389.23,90.49 391.24,91.01 393.24,90.51 395.25,89.95 397.26,89.95 399.26,89.82 401.27,89.74 403.28,89.44 405.28,89.42 407.29,88.97 409.30,88.35 411.30,88.30 413.31,89.08 415.32,89.47 417.32,90.53 419.33,90.72 421.34,90.40 423.34,90.78 425.35,90.68 427.36,90.08 429.36,89.52 431.37,89.26 433.38,88.83 435.38,89.17 437.39,91.46 439.40,92.51 441.40,93.24 443.41,95.37 445.42,98.36 447.42,101.18 449.43,104.07 451.44,106.14 453.44,109.47 455.45,112.20 457.46,114.72 459.46,114.46 461.47,113.08 463.48,112.86 465.48,112.70 467.49,112.74 469.50,112.45 471.51,112.03 473.51,111.28 475.52,110.50 477.53,109.12 479.53,108.56 481.54,107.10 483.55,105.31 485.55,104.69 487.56,102.64 489.57,99.62 491.57,96.35 493.58,93.28 495.59,91.94 497.59,89.62 499.60,87.66 501.61,84.35 503.61,81.14 505.62,79.99 507.63,83.18 509.63,86.42 511.64,89.70 513.65,93.11 515.65,96.84 517.66,99.76 519.67,102.59 521.67,104.17 523.68,105.56 525.69,106.02 527.69,107.67 529.70,108.63 531.71,109.15 533.71,109.66 535.72,110.45 537.73,111.80 539.73,112.67 541.74,112.75 543.75,111.95 545.75,110.64 547.76,109.86 549.77,109.45 551.77,109.89 553.78,110.80 555.79,112.24 557.79,113.36 559.80,114.64 561.81,116.14 563.81,117.99 565.82,118.56 567.83,117.61 569.83,116.49 571.84,115.23 573.85,114.21 575.85,113.50 577.86,112.57 579.87,111.78 581.87,111.65 583.88,112.03 585.89,112.10 587.89,112.38 589.90,113.24 591.91,113.31 593.91,113.82 595.92,113.95 597.93,114.35 599.93,115.68 601.94,117.10 603.95,118.49 605.95,119.42 607.96,120.67 609.97,120.94 611.97,120.37 613.98,119.98 615.99,120.80 617.99,121.63 620.00,122.07" fill="none" stroke="#1A1917" stroke-width="2" stroke-linejoin="round" stroke-linecap="round"/><text x="178.99" y="89.8" font-family="'Jost',sans-serif" font-size="11" font-weight="700" fill="#1A1917" text-anchor="middle" letter-spacing="0.01em" class="sp-climb">Col de Bedos</text><rect class="sp-cat" x="157.2" y="92.8" width="13" height="13" fill="#1A1917"/><text x="163.74" y="102.8" font-family="'Jost',sans-serif" font-size="8.5" font-weight="700" fill="#FAFAF8" text-anchor="middle" letter-spacing="0.04em" class="sp-cat">4</text><text x="175.24" y="102.8" font-family="'Jost',sans-serif" font-size="9.5" font-weight="500" fill="#4B4840" text-anchor="start" class="sp-climb-ele">483 M</text><text x="234.07" y="54.57" font-family="'Jost',sans-serif" font-size="11" font-weight="700" fill="#1A1917" text-anchor="middle" letter-spacing="0.01em" class="sp-climb">Col de Paradis</text><rect class="sp-cat" x="212.3" y="57.6" width="13" height="13" fill="#1A1917"/><text x="218.82" y="67.57" font-family="'Jost',sans-serif" font-size="8.5" font-weight="700" fill="#FAFAF8" text-anchor="middle" letter-spacing="0.04em" class="sp-cat">3</text><text x="230.32" y="67.57" font-family="'Jost',sans-serif" font-size="9.5" font-weight="500" fill="#4B4840" text-anchor="start" class="sp-climb-ele">627 M</text><text x="366.01" y="64.68" font-family="'Jost',sans-serif" font-size="11" font-weight="700" fill="#1A1917" text-anchor="middle" letter-spacing="0.01em" class="sp-climb">Col de Coudons</text><rect class="sp-cat" x="344.3" y="67.7" width="13" height="13" fill="#1A1917"/><text x="350.76" y="77.68" font-family="'Jost',sans-serif" font-size="8.5" font-weight="700" fill="#FAFAF8" text-anchor="middle" letter-spacing="0.04em" class="sp-cat">2</text><text x="362.26" y="77.68" font-family="'Jost',sans-serif" font-size="9.5" font-weight="500" fill="#4B4840" text-anchor="start" class="sp-climb-ele">876 M</text><text x="503.89" y="54.68" font-family="'Jost',sans-serif" font-size="11" font-weight="700" fill="#1A1917" text-anchor="middle" letter-spacing="0.01em" class="sp-climb">Col de Montsegur</text><rect class="sp-cat" x="477.0" y="57.7" width="13" height="13" fill="#1A1917"/><text x="483.54" y="67.68" font-family="'Jost',sans-serif" font-size="8.5" font-weight="700" fill="#FAFAF8" text-anchor="middle" letter-spacing="0.04em" class="sp-cat">1</text><text x="495.04" y="67.68" font-family="'Jost',sans-serif" font-size="9.5" font-weight="500" fill="#4B4840" text-anchor="start" class="sp-climb-ele">1,032 M</text><g class="sp-sprint"><circle cx="328.08" cy="128.35" r="6.5" fill="#FAFAF8" stroke="#1A1917" stroke-width="1.5"/><text x="328.08" y="131.35" font-family="'Jost',sans-serif" font-size="8" font-weight="700" fill="#1A1917" text-anchor="middle">S</text></g><line class="sp-border" x1="20.0" y1="20.0" x2="20.0" y2="148.0" stroke="#1A1917" stroke-width="2"/><g class="sp-start"><path d="M20.0,20.0 L32.0,24.5 L20.0,29.0 Z" fill="#1A1917"/></g><text x="20" y="164" font-family="'Jost',sans-serif" font-size="14" font-weight="700" fill="#1A1917" text-anchor="start" letter-spacing="0.02em" class="sp-town">CARCASSONNE</text><text x="20" y="179" font-family="'Jost',sans-serif" font-size="12" font-weight="500" fill="#4B4840" text-anchor="start" letter-spacing="0.04em" class="sp-ele">105 M</text><text x="620" y="15" font-family="'Jost',sans-serif" font-size="16" font-weight="700" fill="#1A1917" text-anchor="end" letter-spacing="0.04em" class="sp-dist">181.9 KM</text><line class="sp-border" x1="620.0" y1="20.0" x2="620.0" y2="148.0" stroke="#1A1917" stroke-width="2"/><g class="sp-finish"><rect x="604.0" y="20.0" width="8" height="8" fill="#1A1917"/><rect x="612.0" y="20.0" width="8" height="8" fill="#FAFAF8"/><rect x="604.0" y="28.0" width="8" height="8" fill="#FAFAF8"/><rect x="612.0" y="28.0" width="8" height="8" fill="#1A1917"/><rect x="604.0" y="20.0" width="16" height="16" fill="none" stroke="#1A1917" stroke-width="1.25"/></g><text x="620" y="164" font-family="'Jost',sans-serif" font-size="14" font-weight="700" fill="#1A1917" text-anchor="end" letter-spacing="0.02em" class="sp-town">FOIX</text><text x="620" y="179" font-family="'Jost',sans-serif" font-size="12" font-weight="500" fill="#4B4840" text-anchor="end" letter-spacing="0.04em" class="sp-ele">385 M</text><line class="sp-scale" x1="151.9" x2="151.9" y1="150" y2="155" stroke="#1A1917" stroke-width="1"/><text x="151.94" y="164" font-family="'Jost',sans-serif" font-size="8.5" font-weight="500" fill="#4B4840" text-anchor="middle" class="sp-scale">40</text><line class="sp-scale" x1="217.9" x2="217.9" y1="150" y2="155" stroke="#1A1917" stroke-width="1"/><text x="217.91" y="164" font-family="'Jost',sans-serif" font-size="8.5" font-weight="500" fill="#4B4840" text-anchor="middle" class="sp-scale">60</text><line class="sp-scale" x1="283.9" x2="283.9" y1="150" y2="155" stroke="#1A1917" stroke-width="1"/><text x="283.88" y="164" font-family="'Jost',sans-serif" font-size="8.5" font-weight="500" fill="#4B4840" text-anchor="middle" class="sp-scale">80</text><line class="sp-scale" x1="349.9" x2="349.9" y1="150" y2="155" stroke="#1A1917" stroke-width="1"/><text x="349.85" y="164" font-family="'Jost',sans-serif" font-size="8.5" font-weight="500" fill="#4B4840" text-anchor="middle" class="sp-scale">100</text><line class="sp-scale" x1="415.8" x2="415.8" y1="150" y2="155" stroke="#1A1917" stroke-width="1"/><text x="415.82" y="164" font-family="'Jost',sans-serif" font-size="8.5" font-weight="500" fill="#4B4840" text-anchor="middle" class="sp-scale">120</text><line class="sp-scale" x1="481.8" x2="481.8" y1="150" y2="155" stroke="#1A1917" stroke-width="1"/><text x="481.79" y="164" font-family="'Jost',sans-serif" font-size="8.5" font-weight="500" fill="#4B4840" text-anchor="middle" class="sp-scale">140</text><line class="sp-scale" x1="547.8" x2="547.8" y1="150" y2="155" stroke="#1A1917" stroke-width="1"/><text x="547.76" y="164" font-family="'Jost',sans-serif" font-size="8.5" font-weight="500" fill="#4B4840" text-anchor="middle" class="sp-scale">160</text></svg>