<svg xmlns="http://www.w3.org/2000/svg" class="stage-profile" viewBox="0 0 640 192" width="640" height="192"><rect class="sp-bg" width="640" height="192" fill="#FFFFFF"/><line class="sp-leader" x1="140.07" y1="89.44" x2="140.07" y2="148" stroke="#1A1917" stroke-width="0.6"/><line class="sp-leader" x1="463.72" y1="85.77" x2="463.72" y2="148" stroke="#1A1917" stroke-width="0.6"/><line class="sp-leader" x1="496.35" y1="59.77" x2="496.35" y2="148" stroke="#1A1917" stroke-width="0.6"/><line class="sp-leader" x1="76.44" y1="109.10" x2="76.44" y2="148" stroke="#1A1917" stroke-width="0.6"/><g class="sp-fill"><path class="sp-band" d="M20.00,148 L20.00,127.85 L22.01,126.57 L24.01,124.57 L24.89,123.68 L24.89,148 Z" fill="#F2C200" fill-opacity="0.66"/><path class="sp-band" d="M24.89,148 L24.89,123.68 L26.02,123.31 L28.03,122.86 L30.03,122.99 L32.04,123.73 L34.05,124.83 L36.05,125.45 L37.13,124.56 L37.13,148 Z" fill="#F2C200" fill-opacity="0.22"/><path class="sp-band" d="M37.13,148 L37.13,124.56 L38.06,123.86 L40.07,121.40 L41.21,120.47 L41.21,148 Z" fill="#F2C200" fill-opacity="0.66"/><path class="sp-band" d="M41.21,148 L41.21,120.47 L42.07,120.02 L44.08,119.76 L46.09,119.09 L48.09,119.01 L50.10,119.26 L52.11,118.94 L52.63,118.78 L52.63,148 Z" fill="#F2C200" fill-opacity="0.22"/><path class="sp-band" d="M52.63,148 L52.63,118.78 L54.11,117.44 L56.12,115.50 L58.13,114.60 L58.34,114.48 L58.34,148 Z" fill="#F2C200" fill-opacity="0.66"/><path class="sp-band" d="M58.34,148 L58.34,114.48 L60.13,113.93 L62.14,113.95 L64.15,114.05 L66.15,113.27 L68.16,113.27 L70.17,112.08 L72.17,110.50 L74.18,110.38 L76.19,109.32 L78.19,108.72 L80.20,108.67 L82.21,110.07 L84.21,109.82 L86.22,107.60 L88.23,106.34 L90.23,104.69 L92.24,103.80 L94.25,104.84 L96.25,107.52 L98.26,109.50 L100.27,110.56 L102.27,111.83 L104.28,113.79 L106.29,115.60 L108.29,118.03 L110.30,119.04 L112.31,119.26 L114.31,118.13 L116.32,118.04 L118.33,117.61 L120.33,115.93 L122.34,114.60 L124.35,112.32 L126.35,112.22 L126.85,111.25 L126.85,148 Z" fill="#F2C200" fill-opacity="0.22"/><path class="sp-band" d="M126.85,148 L126.85,111.25 L128.36,109.55 L130.37,107.27 L132.37,105.16 L134.38,103.74 L136.39,101.93 L138.39,100.20 L140.40,98.15 L140.72,97.81 L140.72,148 Z" fill="#F2C200" fill-opacity="0.66"/><path class="sp-band" d="M140.72,148 L140.72,97.81 L142.41,97.35 L144.41,97.31 L146.42,96.85 L148.43,95.94 L150.43,95.02 L152.44,94.58 L154.45,93.63 L156.45,92.14 L158.46,91.69 L160.47,90.24 L162.47,89.81 L164.48,89.75 L166.49,89.75 L168.49,90.81 L170.50,92.87 L172.51,94.17 L174.52,95.44 L176.52,95.52 L178.53,96.89 L180.54,98.28 L182.54,99.36 L184.55,100.26 L186.56,101.90 L188.56,102.93 L190.57,103.97 L192.58,102.79 L194.58,102.84 L196.59,103.73 L198.60,104.01 L200.60,103.94 L202.61,104.26 L204.62,105.73 L206.62,106.34 L208.63,106.76 L210.64,106.48 L212.64,107.02 L214.65,106.18 L216.66,107.26 L218.66,108.62 L220.67,109.11 L222.68,109.14 L224.68,109.23 L226.69,109.77 L228.70,109.89 L230.70,109.55 L232.71,108.94 L234.72,109.22 L236.72,109.90 L238.73,111.13 L240.74,112.57 L242.74,114.01 L244.75,114.77 L246.76,114.95 L248.76,116.15 L250.77,114.96 L252.78,117.97 L254.78,119.26 L256.79,118.75 L258.80,120.38 L260.80,122.83 L262.81,124.40 L264.82,126.69 L266.82,127.01 L268.83,127.43 L270.84,126.73 L272.84,125.03 L274.85,124.57 L276.86,122.68 L278.86,121.70 L280.87,119.81 L282.88,119.59 L284.88,120.88 L286.89,121.05 L288.90,122.24 L290.90,124.24 L292.91,125.97 L294.92,127.57 L296.92,127.98 L298.93,128.51 L300.94,127.94 L302.94,127.74 L304.95,128.06 L306.96,129.41 L308.96,131.29 L310.97,132.46 L312.98,134.35 L314.98,136.12 L316.99,138.45 L319.00,139.23 L321.00,139.15 L323.01,137.48 L325.02,136.19 L327.02,134.69 L329.03,133.51 L331.04,132.38 L333.04,131.13 L335.05,130.74 L337.06,130.68 L339.06,130.18 L341.07,130.68 L343.08,131.06 L345.08,132.47 L347.09,133.90 L349.10,134.57 L351.10,135.31 L353.11,136.95 L355.12,139.01 L357.12,139.28 L359.13,139.78 L360.95,138.68 L360.95,148 Z" fill="#F2C200" fill-opacity="0.22"/><path class="sp-band" d="M360.95,148 L360.95,138.68 L361.14,138.54 L363.14,136.89 L364.21,136.11 L364.21,148 Z" fill="#F2C200" fill-opacity="0.66"/><path class="sp-band" d="M364.21,148 L364.21,136.11 L365.15,135.64 L367.16,134.54 L369.16,133.85 L371.17,132.79 L373.18,132.26 L375.18,131.57 L377.19,131.89 L379.20,132.29 L381.20,132.57 L383.21,133.01 L385.22,133.12 L387.22,132.73 L389.23,132.19 L391.24,132.01 L393.24,131.85 L395.25,131.79 L397.26,131.69 L399.26,131.20 L401.27,130.13 L403.28,130.23 L405.28,128.91 L407.29,127.97 L409.30,127.02 L411.30,126.16 L413.31,124.47 L415.32,123.31 L417.32,123.79 L419.33,122.93 L421.34,122.25 L423.34,123.36 L425.35,123.53 L427.36,125.08 L429.36,127.19 L431.37,127.90 L433.38,129.11 L435.38,130.07 L437.39,130.79 L439.25,131.02 L439.25,148 Z" fill="#F2C200" fill-opacity="0.22"/><path class="sp-band" d="M439.25,148 L439.25,131.02 L439.40,130.77 L441.40,128.88 L443.41,127.63 L445.42,125.12 L447.42,123.86 L449.04,122.42 L449.04,148 Z" fill="#F2C200" fill-opacity="0.66"/><path class="sp-band" d="M449.04,148 L449.04,122.42 L449.43,121.75 L451.44,118.54 L453.44,114.68 L455.45,110.29 L457.46,106.34 L459.46,102.12 L461.47,98.45 L463.48,95.14 L463.72,94.77 L463.72,148 Z" fill="#F2C200" fill-opacity="0.99"/><path class="sp-band" d="M463.72,148 L463.72,94.77 L465.48,95.47 L467.49,98.25 L469.50,101.12 L471.51,104.09 L473.51,107.18 L475.52,109.03 L477.53,111.11 L479.53,113.57 L481.54,114.82 L483.55,117.47 L485.55,120.09 L487.56,122.14 L489.57,123.53 L489.82,123.44 L489.82,148 Z" fill="#F2C200" fill-opacity="0.22"/><path class="sp-band" d="M489.82,148 L489.82,123.44 L491.57,121.42 L493.58,118.89 L495.59,116.03 L497.59,113.38 L497.98,113.30 L497.98,148 Z" fill="#F2C200" fill-opacity="0.66"/><path class="sp-band" d="M497.98,148 L497.98,113.30 L499.60,112.16 L501.61,111.83 L503.61,113.32 L505.62,114.10 L507.63,114.77 L509.63,114.60 L511.64,115.21 L513.65,115.65 L515.65,116.37 L517.66,116.74 L519.67,118.59 L521.67,119.92 L523.68,121.25 L525.69,123.08 L527.69,124.19 L529.70,125.91 L531.71,127.13 L533.71,127.69 L535.72,127.91 L537.73,127.21 L539.73,126.80 L541.74,126.41 L543.75,126.99 L545.75,128.53 L547.76,130.14 L549.77,131.35 L551.77,132.83 L553.78,133.17 L555.79,133.68 L557.79,133.68 L559.80,133.62 L561.81,133.57 L563.81,133.57 L565.82,133.76 L567.83,134.07 L569.83,134.24 L571.84,134.34 L573.85,134.37 L575.85,134.29 L577.86,134.24 L579.87,134.07 L581.87,133.46 L582.81,132.91 L582.81,148 Z" fill="#F2C200" fill-opacity="0.22"/><path class="sp-band" d="M582.81,148 L582.81,132.91 L583.88,131.14 L585.89,127.46 L587.89,123.72 L589.90,120.67 L591.91,117.10 L593.91,114.63 L595.92,111.66 L597.93,106.59 L599.93,104.08 L599.93,104.07 L599.93,148 Z" fill="#F2C200" fill-opacity="0.99"/><path class="sp-band" d="M599.93,148 L599.93,104.07 L601.94,101.79 L603.95,98.82 L604.01,98.73 L604.01,148 Z" fill="#F2C200" fill-opacity="0.66"/><path class="sp-band" d="M604.01,148 L604.01,98.73 L605.95,95.67 L607.96,92.80 L609.97,89.33 L611.97,86.51 L613.98,83.76 L615.99,81.29 L617.99,78.12 L620.00,76.00 L620.00,148 Z" fill="#F2C200" fill-opacity="0.99"/></g><line class="sp-baseline" x1="20" y1="148" x2="620" y2="148" stroke="#1A1917" stroke-width="2"/><polyline class="sp-line" points="20.00,127.85 22.01,126.57 24.01,124.57 26.02,123.31 28.03,122.86 30.03,122.99 32.04,123.73 34.05,124.83 36.05,125.45 38.06,123.86 40.07,121.40 42.07,120.02 44.08,119.76 46.09,119.09 48.09,119.01 50.10,119.26 52.11,118.94 54.11,117.44 56.12,115.50 58.13,114.60 60.13,113.93 62.14,113.95 64.15,114.05 66.15,113.27 68.16,113.27 70.17,112.08 72.17,110.50 74.18,110.38 76.19,109.32 78.19,108.72 80.20,108.67 82.21,110.07 84.21,109.82 86.22,107.60 88.23,106.34 90.23,104.69 92.24,103.80 94.25,104.84 96.25,107.52 98.26,109.50 100.27,110.56 102.27,111.83 104.28,113.79 106.29,115.60 108.29,118.03 110.30,119.04 112.31,119.26 114.31,118.13 116.32,118.04 118.33,117.61 120.33,115.93 122.34,114.60 124.35,112.32 126.35,112.22 128.36,109.55 130.37,107.27 132.37,105.16 134.38,103.74 136.39,101.93 138.39,100.20 140.40,98.15 142.41,97.35 144.41,97.31 146.42,96.85 148.43,95.94 150.43,95.02 152.44,94.58 154.45,93.63 156.45,92.14 158.46,91.69 160.47,90.24 162.47,89.81 164.48,89.75 166.49,89.75 168.49,90.81 170.50,92.87 172.51,94.17 174.52,95.44 176.52,95.52 178.53,96.89 180.54,98.28 182.54,99.36 184.55,100.26 186.56,101.90 188.56,102.93 190.57,103.97 192.58,102.79 194.58,102.84 196.59,103.73 198.60,104.01 200.60,103.94 202.61,104.26 204.62,105.73 206.62,106.34 208.63,106.76 210.64,106.48 212.64,107.02 214.65,106.18 216.66,107.26 218.66,108.62 220.67,109.11 222.68,109.14 224.68,109.23 226.69,109.77 228.70,109.89 230.70,109.55 232.71,108.94 234.72,109.22 236.72,109.90 238.73,111.13 240.74,112.57 242.74,114.01 244.75,114.77 246.76,114.95 248.76,116.15 250.77,114.96 252.78,117.97 254.78,119.26 256.79,118.75 258.80,120.38 260.80,122.83 262.81,124.40 264.82,126.69 266.82,127.01 268.83,127.43 270.84,126.73 272.84,125.03 274.85,124.57 276.86,122.68 278.86,121.70 280.87,119.81 282.88,119.59 284.88,120.88 286.89,121.05 288.90,122.24 290.90,124.24 292.91,125.97 294.92,127.57 296.92,127.98 298.93,128.51 300.94,127.94 302.94,127.74 304.95,128.06 306.96,129.41 308.96,131.29 310.97,132.46 312.98,134.35 314.98,136.12 316.99,138.45 319.00,139.23 321.00,139.15 323.01,137.48 325.02,136.19 327.02,134.69 329.03,133.51 331.04,132.38 333.04,131.13 335.05,130.74 337.06,130.68 339.06,130.18 341.07,130.68 343.08,131.06 345.08,132.47 347.09,133.90 349.10,134.57 351.10,135.31 353.11,136.95 355.12,139.01 357.12,139.28 359.13,139.78 361.14,138.54 363.14,136.89 365.15,135.64 367.16,134.54 369.16,133.85 371.17,132.79 373.18,132.26 375.18,131.57 377.19,131.89 379.20,132.29 381.20,132.57 383.21,133.01 385.22,133.12 387.22,132.73 389.23,132.19 391.24,132.01 393.24,131.85 395.25,131.79 397.26,131.69 399.26,131.20 401.27,130.13 403.28,130.23 405.28,128.91 407.29,127.97 409.30,127.02 411.30,126.16 413.31,124.47 415.32,123.31 417.32,123.79 419.33,122.93 421.34,122.25 423.34,123.36 425.35,123.53 427.36,125.08 429.36,127.19 431.37,127.90 433.38,129.11 435.38,130.07 437.39,130.79 439.40,130.77 441.40,128.88 443.41,127.63 445.42,125.12 447.42,123.86 449.43,121.75 451.44,118.54 453.44,114.68 455.45,110.29 457.46,106.34 459.46,102.12 461.47,98.45 463.48,95.14 465.48,95.47 467.49,98.25 469.50,101.12 471.51,104.09 473.51,107.18 475.52,109.03 477.53,111.11 479.53,113.57 481.54,114.82 483.55,117.47 485.55,120.09 487.56,122.14 489.57,123.53 491.57,121.42 493.58,118.89 495.59,116.03 497.59,113.38 499.60,112.16 501.61,111.83 503.61,113.32 505.62,114.10 507.63,114.77 509.63,114.60 511.64,115.21 513.65,115.65 515.65,116.37 517.66,116.74 519.67,118.59 521.67,119.92 523.68,121.25 525.69,123.08 527.69,124.19 529.70,125.91 531.71,127.13 533.71,127.69 535.72,127.91 537.73,127.21 539.73,126.80 541.74,126.41 543.75,126.99 545.75,128.53 547.76,130.14 549.77,131.35 551.77,132.83 553.78,133.17 555.79,133.68 557.79,133.68 559.80,133.62 561.81,133.57 563.81,133.57 565.82,133.76 567.83,134.07 569.83,134.24 571.84,134.34 573.85,134.37 575.85,134.29 577.86,134.24 579.87,134.07 581.87,133.46 583.88,131.14 585.89,127.46 587.89,123.72 589.90,120.67 591.91,117.10 593.91,114.63 595.92,111.66 597.93,106.59 599.93,104.08 601.94,101.79 603.95,98.82 605.95,95.67 607.96,92.80 609.97,89.33 611.97,86.51 613.98,83.76 615.99,81.29 617.99,78.12 620.00,76.00" fill="none" stroke="#1A1917" stroke-width="2" stroke-linejoin="round" stroke-linecap="round"/><text x="140.07" y="72.44" font-family="'Jost',sans-serif" font-size="11" font-weight="700" fill="#1A1917" text-anchor="middle" letter-spacing="0.01em" class="sp-climb">Côte des Rousses</text><rect class="sp-cat" x="113.2" y="75.4" width="13" height="13" fill="#1A1917"/><text x="119.72" y="85.44" font-family="'Jost',sans-serif" font-size="8.5" font-weight="700" fill="#FAFAF8" text-anchor="middle" letter-spacing="0.04em" class="sp-cat">3</text><text x="131.22" y="85.44" font-family="'Jost',sans-serif" font-size="9.5" font-weight="500" fill="#4B4840" text-anchor="start" class="sp-climb-ele">1,094 M</text><text x="443.72" y="56.77" font-family="'Jost',sans-serif" font-size="11" font-weight="700" fill="#1A1917" text-anchor="middle" letter-spacing="0.01em" class="sp-climb">Le Salève</text><text x="443.72" y="68.77" font-family="'Jost',sans-serif" font-size="11" font-weight="700" fill="#1A1917" text-anchor="middle" letter-spacing="0.01em" class="sp-climb">Col de la Croisette</text><rect class="sp-cat" x="416.9" y="71.8" width="13" height="13" fill="#1A1917"/><text x="423.37" y="81.77" font-family="'Jost',sans-serif" font-size="8.5" font-weight="700" fill="#FAFAF8" text-anchor="middle" letter-spacing="0.04em" class="sp-cat">1</text><text x="434.87" y="81.77" font-family="'Jost',sans-serif" font-size="9.5" font-weight="500" fill="#4B4840" text-anchor="start" class="sp-climb-ele">1,161 M</text><text x="511.35" y="42.77" font-family="'Jost',sans-serif" font-size="11" font-weight="700" fill="#1A1917" text-anchor="middle" letter-spacing="0.01em" class="sp-climb">Côte du Mont</text><rect class="sp-cat" x="489.6" y="45.8" width="13" height="13" fill="#1A1917"/><text x="496.1" y="55.77" font-family="'Jost',sans-serif" font-size="8.5" font-weight="700" fill="#FAFAF8" text-anchor="middle" letter-spacing="0.04em" class="sp-cat">3</text><text x="507.6" y="55.77" font-family="'Jost',sans-serif" font-size="9.5" font-weight="500" fill="#4B4840" text-anchor="start" class="sp-climb-ele">795 M</text><g class="sp-sprint"><circle cx="76.44" cy="109.10" r="6.5" fill="#FAFAF8" stroke="#1A1917" stroke-width="1.5"/><text x="76.44" y="112.1" font-family="'Jost',sans-serif" font-size="8" font-weight="700" fill="#1A1917" text-anchor="middle">S</text></g><line class="sp-border" x1="20.0" y1="20.0" x2="20.0" y2="148.0" stroke="#1A1917" stroke-width="2"/><g class="sp-start"><path d="M20.0,20.0 L32.0,24.5 L20.0,29.0 Z" fill="#1A1917"/></g><text x="20" y="164" font-family="'Jost',sans-serif" font-size="14" font-weight="700" fill="#1A1917" text-anchor="start" letter-spacing="0.02em" class="sp-town">CHAMPAGNOLE</text><text x="20" y="179" font-family="'Jost',sans-serif" font-size="12" font-weight="500" fill="#4B4840" text-anchor="start" letter-spacing="0.04em" class="sp-ele">564 M</text><text x="620" y="15" font-family="'Jost',sans-serif" font-size="16" font-weight="700" fill="#1A1917" text-anchor="end" letter-spacing="0.04em" class="sp-dist">183.9 KM</text><line class="sp-border" x1="620.0" y1="20.0" x2="620.0" y2="148.0" stroke="#1A1917" stroke-width="2"/><g class="sp-finish"><rect x="604.0" y="20.0" width="8" height="8" fill="#1A1917"/><rect x="612.0" y="20.0" width="8" height="8" fill="#FAFAF8"/><rect x="604.0" y="28.0" width="8" height="8" fill="#FAFAF8"/><rect x="612.0" y="28.0" width="8" height="8" fill="#1A1917"/><rect x="604.0" y="20.0" width="16" height="16" fill="none" stroke="#1A1917" stroke-width="1.25"/></g><rect class="sp-cat" x="600.0" y="41.0" width="20" height="13" fill="#1A1917"/><text x="610" y="51" font-family="'Jost',sans-serif" font-size="8.5" font-weight="700" fill="#FAFAF8" text-anchor="middle" letter-spacing="0.04em" class="sp-cat">HC</text><text x="620" y="164" font-family="'Jost',sans-serif" font-size="14" font-weight="700" fill="#1A1917" text-anchor="end" letter-spacing="0.02em" class="sp-town">PLATEAU DE SOLAISON</text><text x="620" y="179" font-family="'Jost',sans-serif" font-size="12" font-weight="500" fill="#4B4840" text-anchor="end" letter-spacing="0.04em" class="sp-ele">1,499 M</text><line class="sp-scale" x1="150.5" x2="150.5" y1="150" y2="155" stroke="#1A1917" stroke-width="1"/><text x="150.51" y="164" font-family="'Jost',sans-serif" font-size="8.5" font-weight="500" fill="#4B4840" text-anchor="middle" class="sp-scale">40</text><line class="sp-scale" x1="215.8" x2="215.8" y1="150" y2="155" stroke="#1A1917" stroke-width="1"/><text x="215.76" y="164" font-family="'Jost',sans-serif" font-size="8.5" font-weight="500" fill="#4B4840" text-anchor="middle" class="sp-scale">60</text><line class="sp-scale" x1="281.0" x2="281.0" y1="150" y2="155" stroke="#1A1917" stroke-width="1"/><text x="281.01" y="164" font-family="'Jost',sans-serif" font-size="8.5" font-weight="500" fill="#4B4840" text-anchor="middle" class="sp-scale">80</text><line class="sp-scale" x1="346.3" x2="346.3" y1="150" y2="155" stroke="#1A1917" stroke-width="1"/><text x="346.26" y="164" font-family="'Jost',sans-serif" font-size="8.5" font-weight="500" fill="#4B4840" text-anchor="middle" class="sp-scale">100</text><line class="sp-scale" x1="411.5" x2="411.5" y1="150" y2="155" stroke="#1A1917" stroke-width="1"/><text x="411.52" y="164" font-family="'Jost',sans-serif" font-size="8.5" font-weight="500" fill="#4B4840" text-anchor="middle" class="sp-scale">120</text></svg>