<svg xmlns="http://www.w3.org/2000/svg" class="stage-profile" viewBox="0 0 640 192" width="640" height="192"><rect class="sp-bg" width="640" height="192" fill="#E6E4DD"/><line class="sp-leader" x1="541.44" y1="124.54" x2="541.44" y2="148" stroke="#1A1917" stroke-width="0.6"/><g class="sp-fill"><path class="sp-band" d="M20.00,148 L20.00,139.42 L22.01,139.49 L24.01,139.53 L26.02,139.57 L28.03,139.60 L30.03,139.62 L32.04,139.66 L34.05,139.66 L36.05,139.64 L38.06,139.62 L40.07,139.62 L42.07,139.62 L44.08,139.63 L46.09,139.68 L48.09,139.68 L50.10,139.68 L52.11,139.68 L54.11,139.60 L56.12,139.57 L58.13,139.39 L60.13,139.36 L62.14,139.36 L64.15,139.52 L66.15,139.62 L68.16,139.65 L70.17,139.68 L72.17,139.74 L74.18,139.74 L76.19,139.74 L78.19,139.68 L80.20,139.68 L82.21,139.62 L84.21,139.62 L86.22,139.62 L88.23,139.57 L90.23,139.53 L92.24,139.49 L94.25,139.36 L96.25,139.36 L98.26,139.36 L100.27,139.36 L102.27,139.36 L104.28,139.36 L106.29,139.36 L108.29,139.36 L110.30,139.36 L112.31,139.38 L114.31,139.41 L116.32,139.42 L118.33,139.49 L120.33,139.62 L122.34,139.64 L124.35,139.67 L126.35,139.74 L128.36,139.74 L130.37,139.74 L132.37,139.74 L134.38,139.70 L136.39,139.68 L138.39,139.65 L140.40,139.62 L142.41,139.55 L144.41,139.62 L146.42,139.62 L148.43,139.62 L150.43,139.64 L152.44,139.62 L154.45,139.55 L156.45,139.55 L158.46,139.55 L160.47,139.55 L162.47,139.55 L164.48,139.55 L166.49,139.55 L168.49,139.55 L170.50,139.51 L172.51,139.49 L174.52,139.49 L176.52,139.49 L178.53,139.49 L180.54,139.49 L182.54,139.63 L184.55,139.69 L186.56,139.74 L188.56,139.95 L190.57,139.97 L192.58,140.00 L194.58,139.95 L196.59,139.83 L198.60,139.72 L200.60,139.68 L202.61,139.64 L204.62,139.62 L206.62,139.65 L208.63,139.68 L210.64,139.68 L212.64,139.68 L214.65,139.68 L216.66,139.68 L218.66,139.62 L220.67,139.57 L222.68,139.50 L224.68,139.43 L226.69,139.32 L228.70,139.15 L230.70,138.79 L232.71,138.66 L234.72,138.70 L236.72,138.76 L238.73,138.88 L240.74,138.91 L242.74,138.98 L244.75,138.98 L246.76,138.98 L248.76,138.98 L250.77,138.98 L252.78,138.98 L254.78,138.98 L256.79,138.91 L258.80,138.85 L260.80,138.85 L262.81,138.78 L264.82,138.76 L266.82,138.73 L268.83,138.72 L270.84,138.72 L272.84,138.72 L274.85,138.72 L276.86,138.77 L278.86,138.83 L280.87,138.91 L282.88,138.89 L284.88,138.86 L286.89,138.77 L288.90,138.71 L290.90,138.68 L292.91,138.62 L294.92,138.44 L296.92,138.28 L298.93,138.18 L300.94,138.08 L302.94,137.89 L304.95,137.91 L306.96,137.98 L308.96,138.02 L310.97,138.02 L312.98,138.01 L314.98,137.97 L316.99,137.93 L319.00,137.87 L321.00,137.80 L323.01,137.74 L325.02,137.66 L327.02,137.48 L329.03,137.41 L331.04,137.31 L333.04,137.24 L335.05,137.20 L337.06,137.10 L339.06,137.06 L341.07,137.06 L343.08,137.05 L345.08,136.99 L347.09,136.99 L349.10,136.94 L351.10,136.93 L353.11,136.93 L355.12,136.93 L357.12,136.93 L359.13,136.93 L361.14,136.93 L363.14,136.93 L365.15,136.94 L367.16,136.99 L369.16,136.99 L371.17,136.99 L373.18,136.99 L375.18,136.97 L377.19,136.94 L379.20,136.89 L381.20,136.80 L383.21,136.82 L385.22,136.85 L387.22,136.88 L389.23,136.91 L391.24,136.93 L393.24,136.97 L395.25,136.94 L397.26,136.93 L399.26,136.94 L401.27,137.01 L403.28,137.11 L405.28,137.24 L407.29,137.44 L409.30,137.41 L411.30,137.35 L413.31,137.31 L415.32,137.27 L417.32,137.21 L419.33,137.18 L421.34,137.20 L423.34,137.26 L425.35,137.32 L427.36,137.37 L429.36,137.33 L431.37,137.31 L433.38,137.28 L435.38,137.25 L437.39,137.25 L439.40,137.25 L441.40,137.25 L443.41,137.28 L445.42,137.31 L447.42,137.37 L449.43,137.38 L451.44,137.38 L453.44,137.46 L455.45,137.50 L457.46,137.57 L459.46,137.62 L461.47,137.60 L463.48,137.57 L465.48,137.50 L467.49,137.44 L469.50,137.38 L471.51,137.31 L473.51,137.31 L475.52,137.43 L477.53,137.55 L479.53,137.60 L481.54,137.63 L483.55,137.70 L485.55,137.70 L487.56,137.70 L489.57,137.63 L491.57,137.57 L493.58,137.57 L495.59,137.54 L497.59,137.43 L499.60,137.36 L501.61,137.19 L503.61,137.05 L505.62,136.99 L507.63,136.88 L509.63,136.77 L511.64,136.38 L513.65,136.15 L515.65,135.98 L517.66,135.84 L519.67,135.87 L521.67,135.96 L523.68,135.72 L525.69,135.50 L527.69,135.28 L529.70,134.74 L531.71,134.42 L533.71,134.02 L535.72,133.72 L537.73,133.66 L539.73,133.60 L541.74,133.54 L543.75,133.52 L545.75,133.42 L547.76,133.41 L549.77,133.49 L551.77,133.69 L553.78,133.98 L555.79,134.15 L557.79,134.42 L559.80,134.59 L561.81,134.69 L563.81,134.84 L565.82,134.92 L567.83,135.03 L569.83,135.15 L571.84,135.35 L573.85,135.50 L575.85,135.61 L577.86,135.86 L579.87,136.14 L581.87,136.46 L583.88,136.65 L585.89,136.74 L587.89,136.79 L589.90,136.80 L591.91,136.80 L593.91,136.74 L595.92,136.67 L597.93,136.58 L599.93,136.27 L601.94,135.94 L603.95,135.65 L605.95,135.19 L607.96,134.99 L609.97,134.66 L611.97,134.38 L613.98,133.94 L615.99,133.45 L617.99,133.05 L620.00,133.02 L620.00,148 Z" fill="#F2C200" fill-opacity="0.22"/></g><line class="sp-baseline" x1="20" y1="148" x2="620" y2="148" stroke="#1A1917" stroke-width="2"/><polyline class="sp-line" points="20.00,139.42 22.01,139.49 24.01,139.53 26.02,139.57 28.03,139.60 30.03,139.62 32.04,139.66 34.05,139.66 36.05,139.64 38.06,139.62 40.07,139.62 42.07,139.62 44.08,139.63 46.09,139.68 48.09,139.68 50.10,139.68 52.11,139.68 54.11,139.60 56.12,139.57 58.13,139.39 60.13,139.36 62.14,139.36 64.15,139.52 66.15,139.62 68.16,139.65 70.17,139.68 72.17,139.74 74.18,139.74 76.19,139.74 78.19,139.68 80.20,139.68 82.21,139.62 84.21,139.62 86.22,139.62 88.23,139.57 90.23,139.53 92.24,139.49 94.25,139.36 96.25,139.36 98.26,139.36 100.27,139.36 102.27,139.36 104.28,139.36 106.29,139.36 108.29,139.36 110.30,139.36 112.31,139.38 114.31,139.41 116.32,139.42 118.33,139.49 120.33,139.62 122.34,139.64 124.35,139.67 126.35,139.74 128.36,139.74 130.37,139.74 132.37,139.74 134.38,139.70 136.39,139.68 138.39,139.65 140.40,139.62 142.41,139.55 144.41,139.62 146.42,139.62 148.43,139.62 150.43,139.64 152.44,139.62 154.45,139.55 156.45,139.55 158.46,139.55 160.47,139.55 162.47,139.55 164.48,139.55 166.49,139.55 168.49,139.55 170.50,139.51 172.51,139.49 174.52,139.49 176.52,139.49 178.53,139.49 180.54,139.49 182.54,139.63 184.55,139.69 186.56,139.74 188.56,139.95 190.57,139.97 192.58,140.00 194.58,139.95 196.59,139.83 198.60,139.72 200.60,139.68 202.61,139.64 204.62,139.62 206.62,139.65 208.63,139.68 210.64,139.68 212.64,139.68 214.65,139.68 216.66,139.68 218.66,139.62 220.67,139.57 222.68,139.50 224.68,139.43 226.69,139.32 228.70,139.15 230.70,138.79 232.71,138.66 234.72,138.70 236.72,138.76 238.73,138.88 240.74,138.91 242.74,138.98 244.75,138.98 246.76,138.98 248.76,138.98 250.77,138.98 252.78,138.98 254.78,138.98 256.79,138.91 258.80,138.85 260.80,138.85 262.81,138.78 264.82,138.76 266.82,138.73 268.83,138.72 270.84,138.72 272.84,138.72 274.85,138.72 276.86,138.77 278.86,138.83 280.87,138.91 282.88,138.89 284.88,138.86 286.89,138.77 288.90,138.71 290.90,138.68 292.91,138.62 294.92,138.44 296.92,138.28 298.93,138.18 300.94,138.08 302.94,137.89 304.95,137.91 306.96,137.98 308.96,138.02 310.97,138.02 312.98,138.01 314.98,137.97 316.99,137.93 319.00,137.87 321.00,137.80 323.01,137.74 325.02,137.66 327.02,137.48 329.03,137.41 331.04,137.31 333.04,137.24 335.05,137.20 337.06,137.10 339.06,137.06 341.07,137.06 343.08,137.05 345.08,136.99 347.09,136.99 349.10,136.94 351.10,136.93 353.11,136.93 355.12,136.93 357.12,136.93 359.13,136.93 361.14,136.93 363.14,136.93 365.15,136.94 367.16,136.99 369.16,136.99 371.17,136.99 373.18,136.99 375.18,136.97 377.19,136.94 379.20,136.89 381.20,136.80 383.21,136.82 385.22,136.85 387.22,136.88 389.23,136.91 391.24,136.93 393.24,136.97 395.25,136.94 397.26,136.93 399.26,136.94 401.27,137.01 403.28,137.11 405.28,137.24 407.29,137.44 409.30,137.41 411.30,137.35 413.31,137.31 415.32,137.27 417.32,137.21 419.33,137.18 421.34,137.20 423.34,137.26 425.35,137.32 427.36,137.37 429.36,137.33 431.37,137.31 433.38,137.28 435.38,137.25 437.39,137.25 439.40,137.25 441.40,137.25 443.41,137.28 445.42,137.31 447.42,137.37 449.43,137.38 451.44,137.38 453.44,137.46 455.45,137.50 457.46,137.57 459.46,137.62 461.47,137.60 463.48,137.57 465.48,137.50 467.49,137.44 469.50,137.38 471.51,137.31 473.51,137.31 475.52,137.43 477.53,137.55 479.53,137.60 481.54,137.63 483.55,137.70 485.55,137.70 487.56,137.70 489.57,137.63 491.57,137.57 493.58,137.57 495.59,137.54 497.59,137.43 499.60,137.36 501.61,137.19 503.61,137.05 505.62,136.99 507.63,136.88 509.63,136.77 511.64,136.38 513.65,136.15 515.65,135.98 517.66,135.84 519.67,135.87 521.67,135.96 523.68,135.72 525.69,135.50 527.69,135.28 529.70,134.74 531.71,134.42 533.71,134.02 535.72,133.72 537.73,133.66 539.73,133.60 541.74,133.54 543.75,133.52 545.75,133.42 547.76,133.41 549.77,133.49 551.77,133.69 553.78,133.98 555.79,134.15 557.79,134.42 559.80,134.59 561.81,134.69 563.81,134.84 565.82,134.92 567.83,135.03 569.83,135.15 571.84,135.35 573.85,135.50 575.85,135.61 577.86,135.86 579.87,136.14 581.87,136.46 583.88,136.65 585.89,136.74 587.89,136.79 589.90,136.80 591.91,136.80 593.91,136.74 595.92,136.67 597.93,136.58 599.93,136.27 601.94,135.94 603.95,135.65 605.95,135.19 607.96,134.99 609.97,134.66 611.97,134.38 613.98,133.94 615.99,133.45 617.99,133.05 620.00,133.02" fill="none" stroke="#1A1917" stroke-width="2" stroke-linejoin="round" stroke-linecap="round"/><text x="541.44" y="107.54" font-family="'Jost',sans-serif" font-size="11" font-weight="700" fill="#1A1917" text-anchor="middle" letter-spacing="0.01em" class="sp-climb">Côte de Monjuic</text><text x="541.44" y="120.54" font-family="'Jost',sans-serif" font-size="9.5" font-weight="500" fill="#4B4840" text-anchor="middle" class="sp-climb-ele">103 M</text><line class="sp-border" x1="20.0" y1="20.0" x2="20.0" y2="148.0" stroke="#1A1917" stroke-width="2"/><g class="sp-start"><path d="M20.0,20.0 L32.0,24.5 L20.0,29.0 Z" fill="#1A1917"/></g><text x="20" y="164" font-family="'Jost',sans-serif" font-size="14" font-weight="700" fill="#1A1917" text-anchor="start" letter-spacing="0.02em" class="sp-town">BARCELONA</text><text x="20" y="179" font-family="'Jost',sans-serif" font-size="12" font-weight="500" fill="#4B4840" text-anchor="start" letter-spacing="0.04em" class="sp-ele">11 M</text><text x="620" y="15" font-family="'Jost',sans-serif" font-size="16" font-weight="700" fill="#1A1917" text-anchor="end" letter-spacing="0.04em" class="sp-dist">19.6 KM</text><line class="sp-border" x1="620.0" y1="20.0" x2="620.0" y2="148.0" stroke="#1A1917" stroke-width="2"/><g class="sp-finish"><rect x="604.0" y="20.0" width="8" height="8" fill="#1A1917"/><rect x="612.0" y="20.0" width="8" height="8" fill="#FAFAF8"/><rect x="604.0" y="28.0" width="8" height="8" fill="#FAFAF8"/><rect x="612.0" y="28.0" width="8" height="8" fill="#1A1917"/><rect x="604.0" y="20.0" width="16" height="16" fill="none" stroke="#1A1917" stroke-width="1.25"/></g><text x="620" y="164" font-family="'Jost',sans-serif" font-size="14" font-weight="700" fill="#1A1917" text-anchor="end" letter-spacing="0.02em" class="sp-town">BARCELONA</text><text x="620" y="179" font-family="'Jost',sans-serif" font-size="12" font-weight="500" fill="#4B4840" text-anchor="end" letter-spacing="0.04em" class="sp-ele">111 M</text><line class="sp-scale" x1="142.7" x2="142.7" y1="150" y2="155" stroke="#1A1917" stroke-width="1"/><text x="142.69" y="164" font-family="'Jost',sans-serif" font-size="8.5" font-weight="500" fill="#4B4840" text-anchor="middle" class="sp-scale">4</text><line class="sp-scale" x1="204.0" x2="204.0" y1="150" y2="155" stroke="#1A1917" stroke-width="1"/><text x="204.04" y="164" font-family="'Jost',sans-serif" font-size="8.5" font-weight="500" fill="#4B4840" text-anchor="middle" class="sp-scale">6</text><line class="sp-scale" x1="265.4" x2="265.4" y1="150" y2="155" stroke="#1A1917" stroke-width="1"/><text x="265.39" y="164" font-family="'Jost',sans-serif" font-size="8.5" font-weight="500" fill="#4B4840" text-anchor="middle" class="sp-scale">8</text><line class="sp-scale" x1="326.7" x2="326.7" y1="150" y2="155" stroke="#1A1917" stroke-width="1"/><text x="326.73" y="164" font-family="'Jost',sans-serif" font-size="8.5" font-weight="500" fill="#4B4840" text-anchor="middle" class="sp-scale">10</text><line class="sp-scale" x1="388.1" x2="388.1" y1="150" y2="155" stroke="#1A1917" stroke-width="1"/><text x="388.08" y="164" font-family="'Jost',sans-serif" font-size="8.5" font-weight="500" fill="#4B4840" text-anchor="middle" class="sp-scale">12</text><line class="sp-scale" x1="449.4" x2="449.4" y1="150" y2="155" stroke="#1A1917" stroke-width="1"/><text x="449.42" y="164" font-family="'Jost',sans-serif" font-size="8.5" font-weight="500" fill="#4B4840" text-anchor="middle" class="sp-scale">14</text><line class="sp-scale" x1="510.8" x2="510.8" y1="150" y2="155" stroke="#1A1917" stroke-width="1"/><text x="510.77" y="164" font-family="'Jost',sans-serif" font-size="8.5" font-weight="500" fill="#4B4840" text-anchor="middle" class="sp-scale">16</text></svg>